<svg width="491" height="491" viewBox="0 0 491 491" fill="none" xmlns="http://www.w3.org/2000/svg">
<path d="M131.274 59.5092H57.3984V171.123H131.274V59.5092Z" fill="white"/>
<path d="M131.648 170.76C135.321 176.6 139.643 182.006 144.532 186.875L131.648 170.76Z" fill="white"/>
<path d="M144.533 186.875C143.716 186.275 142.965 185.59 142.294 184.832C140.559 183.095 138.92 181.266 137.384 179.352C135.853 177.445 134.424 175.459 133.102 173.401C132.51 172.576 132.006 171.691 131.6 170.76C132.263 171.527 132.87 172.341 133.416 173.195C134.497 174.717 136.019 176.789 137.796 179.019C139.573 181.248 141.272 183.182 142.519 184.577C143.244 185.294 143.917 186.062 144.533 186.875Z" fill="#E0E0E0"/>
<path d="M45.1738 186.442L58.0478 170.554L45.1738 186.442Z" fill="white"/>
<path d="M58.047 170.554C56.1198 173.368 54.0414 176.076 51.8211 178.665C49.7427 181.372 47.5236 183.968 45.173 186.442C45.0649 186.354 47.8538 182.721 51.4087 178.331C53.489 175.629 55.7046 173.033 58.047 170.554Z" fill="#E0E0E0"/>
<path d="M427.926 47.5386H360.08V118.262H427.926V47.5386Z" fill="white"/>
<path d="M360.08 118.734C359.601 119.45 359.041 120.109 358.411 120.698C357.321 121.837 355.799 123.388 354.1 125.067C352.401 126.747 350.82 128.249 349.661 129.31C349.073 129.929 348.414 130.476 347.697 130.94C348.179 130.225 348.739 129.566 349.367 128.976C350.447 127.837 351.979 126.285 353.687 124.596C355.396 122.907 356.977 121.405 358.126 120.344C358.71 119.73 359.366 119.19 360.08 118.734Z" fill="#E0E0E0"/>
<path d="M344.034 465.753H389.825V436.185H392.997V427.916H342.129V435.419L344.034 465.753Z" fill="#C75B52" fill-opacity="0.4"/>
<path d="M330.051 440.948H311.609V445.396H330.051V440.948Z" fill="#E0E0E0"/>
<path d="M332.908 450.964H309.232V460.362H332.908V450.964Z" fill="white"/>
<path d="M312.875 398.387V427.955H356.122H403.808V398.387H312.875Z" fill="#C75B52" fill-opacity="0.4"/>
<path d="M241.317 220.351V221.333H237.389V220.557L239.647 217.886H237.448V216.904H241.268V217.68L239.009 220.351H241.317Z" fill="#263238"/>
<path d="M234.118 216.04V218.358H224.877V216.541L230.16 210.295H225.014V207.978H233.96V209.794L228.658 216.04H234.118Z" fill="#263238"/>
<path d="M220.881 210.727V215.392H202.223V211.739L212.877 199.14H202.498V194.436H220.527V198.089L209.882 210.688L220.881 210.727Z" fill="#263238"/>
<path d="M216.039 154.311H201.79V172.645H175.374V154.311H124.713V136.635L167.685 76.8218H195.751L156.736 132.796H176.18V116.534H201.77V132.825H216.039V154.311Z" fill="#C75B52"/>
<path d="M221.49 124.714C221.49 93.1034 239.284 74.8971 263.785 74.8971C288.286 74.8971 305.942 93.1328 305.942 124.714C305.942 156.295 288.148 174.531 263.785 174.531C239.422 174.531 221.49 156.364 221.49 124.714ZM278.702 124.714C278.702 104.593 272.407 97.0707 263.785 97.0707C255.163 97.0707 248.731 104.593 248.731 124.714C248.731 144.835 255.026 152.367 263.785 152.367C272.544 152.367 278.702 144.865 278.702 124.714Z" fill="#C75B52"/>
<path d="M405.566 154.311H391.327V172.645H364.911V154.311H314.24V136.635L357.222 76.8218H385.278L346.273 132.796H365.707V116.534H391.298V132.825H405.566V154.311Z" fill="#C75B52"/>
<g opacity="0.3">
<path d="M216.039 154.311H201.79V172.645H175.374V154.311H124.713V136.635L167.685 76.8218H195.751L156.736 132.796H176.18V116.534H201.77V132.825H216.039V154.311Z" fill="black"/>
<path d="M221.488 124.714C221.488 93.1034 239.282 74.8971 263.783 74.8971C288.284 74.8971 305.94 93.1328 305.94 124.714C305.94 156.295 288.146 174.531 263.783 174.531C239.42 174.531 221.488 156.364 221.488 124.714ZM278.7 124.714C278.7 104.593 272.405 97.0707 263.783 97.0707C255.161 97.0707 248.729 104.593 248.729 124.714C248.729 144.835 255.024 152.367 263.783 152.367C272.542 152.367 278.7 144.865 278.7 124.714Z" fill="black"/>
<path d="M405.564 154.311H391.325V172.645H364.909V154.311H314.238V136.635L357.22 76.8218H385.276L346.271 132.796H365.705V116.534H391.296V132.825H405.564V154.311Z" fill="black"/>
</g>
<path d="M208.095 154.311H193.856V172.645H167.441V154.311H116.799V136.635L159.781 76.8218H187.837L148.832 132.796H168.265V116.534H193.856V132.825H208.095V154.311Z" fill="#C75B52"/>
<path d="M213.555 124.714C213.555 93.1034 231.349 74.8971 255.849 74.8971C280.35 74.8971 298.007 93.1328 298.007 124.714C298.007 156.295 280.213 174.531 255.849 174.531C231.486 174.531 213.555 156.364 213.555 124.714ZM270.766 124.714C270.766 104.593 264.471 97.0707 255.849 97.0707C247.227 97.0707 240.795 104.593 240.795 124.714C240.795 144.835 247.09 152.367 255.849 152.367C264.609 152.367 270.766 144.865 270.766 124.714Z" fill="#C75B52"/>
<path d="M397.64 154.311H383.401V172.645H356.985V154.311H306.383V136.635L349.365 76.8218H377.381L338.376 132.796H357.81V116.534H383.401V132.825H397.64V154.311Z" fill="#C75B52"/>
<path d="M224.672 53.2048C224.672 47.5386 229.12 43.3848 235.15 43.3848C241.179 43.3848 245.638 47.5288 245.638 53.2048C245.638 58.8807 241.189 63.0248 235.15 63.0248C229.111 63.0248 224.672 58.8611 224.672 53.2048ZM240.246 53.2048C240.277 52.5173 240.167 51.8308 239.925 51.1868C239.683 50.5427 239.313 49.9544 238.837 49.4572C238.361 48.9601 237.789 48.5645 237.157 48.2942C236.524 48.0239 235.843 47.8845 235.155 47.8845C234.467 47.8845 233.786 48.0239 233.153 48.2942C232.52 48.5645 231.948 48.9601 231.473 49.4572C230.997 49.9544 230.627 50.5427 230.384 51.1868C230.142 51.8308 230.033 52.5173 230.063 53.2048C230.033 53.8922 230.142 54.5787 230.384 55.2227C230.627 55.8668 230.997 56.4552 231.473 56.9523C231.948 57.4494 232.52 57.8451 233.153 58.1154C233.786 58.3857 234.467 58.525 235.155 58.525C235.843 58.525 236.524 58.3857 237.157 58.1154C237.789 57.8451 238.361 57.4494 238.837 56.9523C239.313 56.4552 239.683 55.8668 239.925 55.2227C240.167 54.5787 240.277 53.8922 240.246 53.2048Z" fill="#263238"/>
<path d="M247.277 55.3063C247.277 50.9069 250.754 47.7842 255.526 47.7842C260.299 47.7842 263.765 50.9069 263.765 55.3063C263.765 59.7057 260.348 62.8677 255.526 62.8677C250.705 62.8677 247.277 59.7155 247.277 55.3063ZM258.59 55.3063C258.59 53.0968 257.274 51.8497 255.526 51.8497C253.778 51.8497 252.452 53.0968 252.452 55.3063C252.452 57.5158 253.798 58.8022 255.526 58.8022C257.254 58.8022 258.59 57.5354 258.59 55.3063Z" fill="#263238"/>
<path d="M282.493 55.3259C282.493 59.9609 279.292 62.8676 275.324 62.8676C274.578 62.9047 273.832 62.7878 273.132 62.5243C272.433 62.2608 271.795 61.8562 271.259 61.3357V67.8562H266.123V48.0296H271.033V49.483C271.575 48.8908 272.245 48.4301 272.992 48.1357C273.739 47.8413 274.544 47.7211 275.344 47.7841C279.292 47.7841 282.493 50.6908 282.493 55.3259ZM277.318 55.3259C277.318 53.1164 275.973 51.8496 274.254 51.8496C272.536 51.8496 271.18 53.1164 271.18 55.3259C271.18 57.5354 272.526 58.8022 274.254 58.8022C275.982 58.8022 277.318 57.5354 277.318 55.3259Z" fill="#263238"/>
<path d="M283.709 61.3652L285.241 57.8594C286.794 58.744 288.55 59.2078 290.337 59.2048C292.056 59.2048 292.626 58.8316 292.626 58.2228C292.626 56.2588 284.004 58.4879 284.004 52.645C284.004 49.8954 286.537 47.794 291.113 47.794C293.105 47.7532 295.078 48.1768 296.878 49.0313L295.346 52.5076C294.06 51.7934 292.613 51.4214 291.143 51.4274C289.414 51.4274 288.796 51.9184 288.796 52.4094C288.796 54.4225 297.388 52.2424 297.388 58.0362C297.388 60.7269 294.914 62.8284 290.171 62.8284C287.928 62.8873 285.707 62.3843 283.709 61.3652Z" fill="#263238"/>
<path d="M298.961 60.0394C299.036 59.2799 299.39 58.5754 299.955 58.0628C300.521 57.5502 301.257 57.2663 302.02 57.2663C302.783 57.2663 303.519 57.5502 304.084 58.0628C304.65 58.5754 305.004 59.2799 305.079 60.0394C305.035 60.8208 304.693 61.5555 304.124 62.093C303.555 62.6304 302.802 62.9299 302.02 62.9299C301.237 62.9299 300.484 62.6304 299.916 62.093C299.347 61.5555 299.005 60.8208 298.961 60.0394ZM298.961 43.7677H305.049L304.018 55.7579H299.953L298.961 43.7677Z" fill="#263238"/>
<path d="M134.044 376.45H121.926V434.653H134.044V376.45Z" fill="#E0E0E0"/>
<path d="M84.6387 368.957C84.8351 368.957 121.955 380.594 121.955 380.594H134.063L176.574 368.957H84.6387Z" fill="#E0E0E0"/>
<path d="M50.7695 173.745C45.398 174.953 40.596 179.912 41.4013 189.811C41.4013 189.811 37.1197 190.616 37.3849 198.384C37.65 206.151 36.8546 254.358 46.488 280.577C54.4128 302.132 68.092 348.237 72.7467 363.978C73.2067 365.536 74.1583 366.902 75.4592 367.874C76.7602 368.846 78.3406 369.37 79.9644 369.369H184.763C186.609 369.363 188.435 368.985 190.132 368.257C191.828 367.53 193.361 366.468 194.639 365.136C195.916 363.803 196.912 362.227 197.568 360.502C198.223 358.776 198.524 356.936 198.453 355.091C198.293 351.538 196.762 348.185 194.182 345.737C191.601 343.288 188.173 341.935 184.616 341.962L108.197 342.757C108.197 342.757 103.513 317.52 98.6911 317.225C98.6911 317.225 100.832 301.425 92.7991 296.878C92.7991 296.878 94.3998 277.376 85.8368 275.618C85.8368 275.618 87.1723 259.297 79.9448 256.4C79.9448 256.4 83.9611 241.719 76.4685 234.227C76.4685 234.227 78.6092 217.091 76.4685 204.236C74.3277 191.382 73.5421 168.668 50.7695 173.745Z" fill="#455A64"/>
<path d="M190.135 356.682C190.135 356.682 189.958 356.682 189.605 356.682H188.053L182.034 356.731L159.595 356.8L82.8124 356.888H82.6356L82.5767 356.721L71.7747 325.396C65.4997 307.042 59.5586 289.543 54.3246 273.575C53.0185 269.579 51.7616 265.719 50.5832 261.87C49.9727 260.001 49.4679 258.1 49.0709 256.174C48.8685 255.234 48.7177 254.283 48.6192 253.327C48.5111 252.345 48.3442 251.441 48.2853 250.508C47.6077 243.055 47.4506 236.083 47.3033 229.729C47.1363 217.022 47.3033 206.731 47.48 199.631C47.5782 196.086 47.6568 193.336 47.7059 191.451L47.7943 189.32C47.7943 188.839 47.8434 188.603 47.8434 188.603C47.8434 188.603 47.8434 188.848 47.8434 189.32C47.8434 189.791 47.8434 190.528 47.8434 191.451C47.8434 193.336 47.7648 196.096 47.7059 199.631C47.6077 206.74 47.48 217.022 47.7059 229.729C47.8434 236.073 48.0201 243.035 48.6879 250.469C48.7566 251.451 48.9138 252.325 49.0218 253.268C49.1229 254.215 49.277 255.156 49.4833 256.086C49.9006 258.013 50.4284 259.915 51.0643 261.782C52.2427 265.582 53.5095 269.471 54.8254 273.467C60.0791 289.425 66.0398 306.914 72.305 325.268C76.0366 336.07 79.6504 346.656 83.107 356.603L82.8713 356.437L159.654 356.525L182.093 356.594H188.112H189.664C189.958 356.662 190.135 356.682 190.135 356.682Z" fill="#263238"/>
<path d="M96.7964 342.875C96.4987 343.192 96.1697 343.479 95.8144 343.729C95.1564 344.25 94.2235 345.036 93.1041 346.018C90.182 348.593 87.4636 351.39 84.9731 354.384C82.4849 357.379 80.2202 360.553 78.1973 363.88C77.4215 365.157 76.8127 366.207 76.4101 366.944C76.2187 367.336 75.9884 367.708 75.7227 368.054C75.8512 367.638 76.0223 367.236 76.2333 366.856C76.5868 366.09 77.1466 365.009 77.8831 363.703C79.8282 360.296 82.0693 357.065 84.5803 354.05C87.082 351.032 89.8564 348.251 92.8684 345.743C94.0271 344.761 94.9993 344.044 95.6867 343.572C96.0306 343.301 96.4026 343.067 96.7964 342.875Z" fill="#263238"/>
<path d="M108.198 342.718C108.198 342.718 107.942 342.718 107.442 342.718L105.242 342.777L96.7968 342.914H96.6888V342.806L96.512 341.765C96.406 341.43 96.2781 341.102 96.129 340.783C95.7823 340.095 95.1795 339.569 94.4498 339.32C92.7396 338.951 90.9533 339.235 89.4416 340.116L89.0881 340.283L89.2158 339.919C90.4009 336.455 90.5713 332.724 89.7068 329.166C88.7331 324.968 86.3908 321.213 83.0488 318.492L82.9211 318.394L82.9801 318.247C84.0346 315.25 84.1776 312.008 83.3911 308.93C82.6046 305.853 80.9239 303.077 78.5611 300.954L78.4334 300.855L78.4923 300.698C79.7687 296.56 79.6955 292.123 78.2832 288.029C76.8709 283.935 74.1928 280.397 70.6363 277.926L70.5185 277.847V277.71C70.5974 275 70.5121 272.288 70.2632 269.588C70.0292 266.828 69.5193 264.097 68.7411 261.438C67.9358 258.865 66.7181 256.292 64.5676 254.8L64.4104 254.691L64.4694 254.515C65.6085 250.569 66.057 246.456 65.7951 242.358C65.6401 240.412 65.2239 238.496 64.5577 236.662C63.8731 234.897 62.875 233.27 61.6117 231.86L61.4939 231.723L61.5823 231.575C63.7359 228.156 64.9174 224.214 64.9996 220.174C65.0155 216.526 63.8282 212.975 61.6216 210.069V210.011V209.942C61.7422 205.092 60.7653 200.279 58.7639 195.86C57.9061 194.071 56.6737 192.486 55.1502 191.215C53.8506 190.169 52.329 189.433 50.7017 189.064C49.3927 188.783 48.0501 188.69 46.7148 188.789L45.1141 188.966L43.7983 189.231C43.0127 189.379 42.4333 189.595 42.0405 189.683C41.6477 189.771 41.4316 189.83 41.4316 189.83C42.198 189.554 42.9781 189.318 43.7688 189.123L45.0847 188.829L46.705 188.623C48.0546 188.504 49.4144 188.583 50.741 188.858C52.413 189.209 53.98 189.945 55.3171 191.009C56.8836 192.293 58.1533 193.901 59.0389 195.722C61.0876 200.181 62.0951 205.046 61.9849 209.952V209.834C64.2586 212.801 65.4876 216.436 65.4808 220.174C65.4097 224.302 64.2147 228.332 62.0242 231.831V231.546C63.3258 232.988 64.36 234.651 65.0782 236.456C65.7711 238.352 66.2006 240.335 66.3548 242.348C66.636 246.511 66.1874 250.692 65.0291 254.701L64.8131 254.338C67.1404 255.958 68.3679 258.629 69.1928 261.212C69.9932 263.901 70.5131 266.665 70.7443 269.461C70.9951 272.183 71.077 274.918 70.9898 277.651L70.8818 277.425C74.5345 279.954 77.2856 283.582 78.7354 287.781C80.1853 291.981 80.2584 296.533 78.944 300.777L78.8753 300.512C81.3087 302.707 83.0325 305.578 83.8266 308.758C84.6207 311.938 84.4491 315.283 83.3336 318.364L83.2648 318.119C86.6768 320.899 89.0561 324.745 90.021 329.039C90.8897 332.667 90.6954 336.468 89.4613 339.988L89.2452 339.792C90.0818 339.379 90.9704 339.082 91.8868 338.908C92.7521 338.716 93.6524 338.753 94.4989 339.016C94.9091 339.164 95.2845 339.395 95.602 339.694C95.9195 339.993 96.1724 340.354 96.3451 340.754C96.5019 341.104 96.6331 341.465 96.7379 341.834L96.9146 342.914L96.7968 342.806H105.242H107.442L108.198 342.718Z" fill="#263238"/>
<g opacity="0.3">
<path d="M94.1745 296.564L59.127 301.081C59.6544 302.013 60.3894 302.81 61.2751 303.411C62.1607 304.012 63.173 304.401 64.2334 304.548C66.3527 304.814 68.4996 304.771 70.6065 304.42C79.6807 303.435 88.8141 303.107 97.9356 303.438C96.9136 301.027 95.6537 298.725 94.1745 296.564Z" fill="black"/>
</g>
<path d="M76.8522 232.331C74.4368 232.647 72.0016 232.789 69.5658 232.754C67.1342 232.884 64.6967 232.851 62.2695 232.655C64.685 232.339 67.1202 232.198 69.556 232.233C71.9875 232.103 74.4251 232.136 76.8522 232.331Z" fill="#263238"/>
<path d="M76.5273 457.612C76.5273 457.612 82.1346 440.506 89.8629 436.362C102.275 429.713 130.901 426.542 130.901 426.542L134.033 434.633C134.033 434.633 95.8629 436.136 89.8433 443.835C86.4108 448.247 83.2117 452.836 80.2589 457.583L76.5273 457.612Z" fill="#E0E0E0"/>
<path d="M81.4179 466.695C85.8922 466.695 89.5194 463.068 89.5194 458.594C89.5194 454.12 85.8922 450.492 81.4179 450.492C76.9436 450.492 73.3164 454.12 73.3164 458.594C73.3164 463.068 76.9436 466.695 81.4179 466.695Z" fill="#263238"/>
<path d="M179.981 457.308C179.981 457.308 174.373 440.201 166.645 436.057C154.232 429.409 125.617 426.237 125.617 426.237L122.475 434.329C122.475 434.329 160.645 435.831 166.665 443.54C170.098 447.951 173.298 452.54 176.249 457.288L179.981 457.308Z" fill="#E0E0E0"/>
<path d="M177.123 466.695C181.597 466.695 185.224 463.068 185.224 458.594C185.224 454.12 181.597 450.492 177.123 450.492C172.649 450.492 169.021 454.12 169.021 458.594C169.021 463.068 172.649 466.695 177.123 466.695Z" fill="#263238"/>
<path d="M123.801 430.901L125.578 452.918L130.586 453.91V430.901" fill="#E0E0E0"/>
<path d="M127.975 466.695C132.449 466.695 136.076 463.068 136.076 458.594C136.076 454.12 132.449 450.492 127.975 450.492C123.5 450.492 119.873 454.12 119.873 458.594C119.873 463.068 123.5 466.695 127.975 466.695Z" fill="#263238"/>
<path d="M67.7578 258.502C69.704 257.842 71.7008 257.343 73.7284 257.009C75.7239 256.514 77.7571 256.186 79.8069 256.027C77.8613 256.688 75.8643 257.187 73.8364 257.52C71.8405 258.013 69.8075 258.341 67.7578 258.502Z" fill="#263238"/>
<path d="M85.1194 275.638C84.4793 275.94 83.8026 276.158 83.1063 276.286C81.8395 276.61 80.0818 276.983 78.1178 277.268C76.1538 277.552 74.3665 277.759 73.0703 277.837C72.3696 277.931 71.6596 277.931 70.959 277.837C70.959 277.69 74.1407 277.385 78.0392 276.767C81.9377 276.148 85.0801 275.5 85.1194 275.638Z" fill="#263238"/>
<path d="M99.5949 318.08C98.8331 318.292 98.0483 318.41 97.2578 318.433C95.8044 318.58 93.7913 318.708 91.5622 318.777C89.333 318.845 87.3199 318.777 85.8567 318.777C85.0682 318.797 84.2801 318.721 83.5098 318.551C84.2888 318.427 85.0784 318.381 85.8666 318.413L91.5523 318.286L97.2283 318.089C98.0149 318.007 98.8077 318.004 99.5949 318.08Z" fill="#263238"/>
<path d="M103.67 333.458C103.67 333.615 100.41 334.322 96.6093 335.942C92.809 337.562 90.0005 339.409 89.9121 339.281C90.4309 338.749 91.0268 338.299 91.6797 337.945C93.1869 336.992 94.77 336.164 96.413 335.471C98.0519 334.772 99.747 334.214 101.48 333.801C102.192 333.591 102.928 333.475 103.67 333.458Z" fill="#263238"/>
<path d="M169.189 369.556C169.189 369.693 149.873 369.772 126.049 369.713C102.226 369.654 82.9004 369.517 82.9004 369.369C82.9004 369.222 102.216 369.153 126.049 369.202C149.883 369.252 169.189 369.409 169.189 369.556Z" fill="#263238"/>
<path d="M133.435 381.016C131.525 381.274 129.596 381.36 127.671 381.271C125.742 381.36 123.81 381.274 121.896 381.016C123.81 380.763 125.742 380.678 127.671 380.761C129.596 380.678 131.525 380.764 133.435 381.016Z" fill="#263238"/>
<path d="M133.985 427.936C132.212 428.934 130.223 429.484 128.189 429.537C126.156 429.59 124.14 429.145 122.318 428.24C124.245 428.731 126.222 428.994 128.21 429.026C130.171 428.886 132.108 428.52 133.985 427.936Z" fill="#263238"/>
<path d="M253.278 246.02C253.278 246.02 248.663 238.94 245.992 236.525C243.93 234.669 233.923 230.986 229.426 229.385C227.984 228.876 226.467 228.61 224.938 228.6C219.046 228.541 203.471 228.6 195.537 230.014C185.648 231.821 251.255 283.415 251.255 283.415L305.904 283.543L309.478 270.05L272.997 262.518L252.866 246.551" fill="#E0E0E0"/>
<g opacity="0.3">
<path d="M210.639 231.88C210.639 231.88 214.252 232.056 219.29 232.862C224.328 233.667 229.856 233.922 232.626 236.377C234.482 238.017 245.834 238.341 245.834 238.341L230.122 237.762L210.639 231.88Z" fill="black"/>
</g>
<path d="M205.455 230.583C205.786 230.579 206.116 230.618 206.437 230.701C207.075 230.819 208.008 231.006 209.138 231.29C211.406 231.85 214.509 232.714 217.917 233.736L221.678 234.904H221.619C224.181 235.018 226.726 235.377 229.219 235.975C229.427 236.359 229.586 236.768 229.691 237.192C229.428 236.844 229.204 236.469 229.023 236.073L229.082 236.132C226.584 235.711 224.062 235.446 221.53 235.336H221.471L217.701 234.197L208.98 231.614L206.329 230.858C206.027 230.803 205.734 230.711 205.455 230.583Z" fill="#263238"/>
<path d="M348.217 283.032C348.295 282.62 347.136 277.916 347.019 277.444C346.901 276.973 343.307 271.552 343.307 271.552L341.343 270.953C341.343 270.953 332.21 268.783 330.364 268.911L329.077 269.048C329.077 269.048 326.681 269.225 325.739 269.392C324.796 269.559 318.953 271.611 318.953 271.611C317.521 271.915 316.054 272.024 314.593 271.935C312.578 271.609 310.582 271.176 308.613 270.639L306.275 283.503L310.694 283.366C312.074 283.855 313.498 284.207 314.946 284.417C316.537 284.525 321.045 285.016 321.045 285.016C321.045 285.016 328.007 287.962 329.755 283.857C331.503 279.752 324.786 279.33 324.786 279.33L326.868 277.857L332.2 277.307L333.585 277.749L335.107 280.106C335.107 280.106 334.694 285.31 338.053 284.957L338.937 284.858L339.408 279.516L337.817 274.115L341.333 279.448C341.333 279.448 341.637 284.063 343.159 284.662C343.276 284.715 343.404 284.738 343.532 284.731C345.379 284.672 345.742 284.151 345.742 284.151L346.125 283.219C346.125 283.219 347.951 284.436 348.217 283.032Z" fill="#FFBF9D"/>
<path d="M328.254 269.068C328.81 268.987 329.376 269.01 329.924 269.137C331.272 269.319 332.592 269.672 333.852 270.187C335.136 270.681 336.274 271.492 337.161 272.544C337.552 272.966 337.806 273.497 337.888 274.066C337.799 274.066 337.554 273.507 336.906 272.78C335.989 271.85 334.884 271.127 333.665 270.659C330.778 269.51 328.225 269.255 328.254 269.068Z" fill="#FF9A6C"/>
<path d="M331.69 274.685C331.827 274.685 331.926 275.245 331.994 275.912C332.063 276.58 332.083 277.15 331.945 277.189C331.808 277.228 331.562 276.678 331.484 275.971C331.405 275.264 331.543 274.675 331.69 274.685Z" fill="#FF9A6C"/>
<path d="M328.254 274.862C328.362 274.764 329.334 275.844 330.886 276.59C332.437 277.336 333.832 277.572 333.832 277.69C332.725 277.848 331.598 277.619 330.64 277.042C329.614 276.618 328.769 275.846 328.254 274.862Z" fill="#FF9A6C"/>
<path d="M317.117 275.343C317.61 275.385 318.084 275.554 318.492 275.834C319.538 276.409 320.435 277.219 321.114 278.2C321.324 278.515 321.515 278.843 321.683 279.182L321.418 279.045C322.697 278.789 324.022 278.901 325.238 279.369C323.989 279.35 322.74 279.406 321.497 279.536H321.32L321.232 279.379C321.07 279.064 320.89 278.759 320.692 278.466C319.709 277.208 318.496 276.148 317.117 275.343Z" fill="#FF9A6C"/>
<path d="M341.539 270.904C342.061 271.321 342.509 271.822 342.865 272.387C343.804 273.694 344.564 275.121 345.123 276.629C345.688 278.138 346.041 279.718 346.174 281.323C346.287 281.973 346.287 282.638 346.174 283.287C345.872 281.08 345.373 278.904 344.681 276.786C343.811 274.736 342.759 272.768 341.539 270.904Z" fill="#FF9A6C"/>
<path d="M254.555 424.99L253.573 451.563C253.573 451.563 280.214 461.54 280.509 466.45L228.915 466.342L228.807 424.862L254.555 424.99Z" fill="#455A64"/>
<path d="M237.645 449.294C237.149 449.443 236.726 449.77 236.458 450.213C236.189 450.656 236.094 451.182 236.191 451.69C236.32 452.194 236.638 452.628 237.079 452.903C237.52 453.177 238.05 453.271 238.558 453.163C239.084 453.003 239.533 452.654 239.816 452.182C240.099 451.71 240.197 451.15 240.09 450.61C239.897 450.102 239.516 449.688 239.026 449.454C238.536 449.22 237.974 449.184 237.458 449.353" fill="#E0E0E0"/>
<path d="M228.914 466.332L229.071 462.149L278.476 463.818C278.476 463.818 280.764 464.8 280.508 466.44L228.914 466.332Z" fill="#263238"/>
<path d="M254.387 451.298C254.387 451.553 253.11 451.661 251.873 452.466C250.636 453.272 249.968 454.332 249.732 454.234C249.496 454.136 249.879 452.682 251.401 451.73C252.924 450.777 254.436 451.072 254.387 451.298Z" fill="white"/>
<path d="M259.789 453.546C259.848 453.792 258.758 454.214 257.894 455.285C257.03 456.355 256.794 457.474 256.539 457.465C256.283 457.455 256.126 456.021 257.226 454.725C258.326 453.429 259.789 453.311 259.789 453.546Z" fill="white"/>
<path d="M262.852 460.028C262.616 460.087 262.272 458.83 262.92 457.445C263.568 456.06 264.747 455.481 264.884 455.736C265.022 455.992 264.256 456.718 263.745 457.818C263.234 458.918 263.097 460.008 262.852 460.028Z" fill="white"/>
<path d="M253.946 445.219C253.838 445.445 252.679 445.101 251.256 445.219C249.832 445.337 248.722 445.759 248.594 445.543C248.467 445.327 249.527 444.433 251.206 444.345C252.886 444.257 254.064 445.023 253.946 445.219Z" fill="white"/>
<path d="M213.202 422.26L196.508 442.882C196.508 442.882 211.847 466.843 209.166 470.967L167.922 439.936L192.678 406.676L213.202 422.26Z" fill="#455A64"/>
<path d="M185.067 431.51C184.578 431.336 184.043 431.346 183.561 431.54C183.08 431.733 182.686 432.097 182.455 432.561C182.258 433.037 182.249 433.57 182.432 434.052C182.614 434.534 182.974 434.928 183.437 435.154C183.954 435.34 184.522 435.329 185.031 435.122C185.54 434.916 185.955 434.528 186.196 434.034C186.349 433.512 186.292 432.951 186.04 432.469C185.787 431.988 185.357 431.623 184.841 431.451" fill="#E0E0E0"/>
<path d="M167.922 439.936L170.544 436.686L209.087 467.638C209.087 467.638 210.325 469.818 209.146 470.957L167.922 439.936Z" fill="#263238"/>
<path d="M197.294 443.186C197.137 443.383 196.056 442.715 194.583 442.617C193.11 442.519 191.942 442.97 191.814 442.744C191.686 442.519 192.865 441.596 194.652 441.762C196.439 441.929 197.48 443.029 197.294 443.186Z" fill="white"/>
<path d="M200.269 448.224C200.171 448.46 199.042 448.145 197.716 448.479C196.39 448.813 195.516 449.569 195.32 449.412C195.124 449.255 195.86 448.018 197.51 447.625C199.16 447.232 200.417 448.028 200.269 448.224Z" fill="white"/>
<path d="M198.835 455.245C198.619 455.157 199.091 453.939 200.446 453.222C201.801 452.506 203.058 452.78 203.019 453.016C202.979 453.252 201.948 453.389 200.858 453.998C199.768 454.607 199.051 455.383 198.835 455.245Z" fill="white"/>
<path d="M200.584 438.05C200.368 438.168 199.651 437.196 198.453 436.42C197.255 435.645 196.096 435.33 196.126 435.085C196.155 434.839 197.54 434.751 198.944 435.694C200.348 436.636 200.8 437.972 200.584 438.05Z" fill="white"/>
<path d="M251.893 238.891C256.892 237.559 261.998 236.662 267.153 236.21C272.334 235.768 277.543 236.618 282.315 238.685C283.022 239.009 287.755 241.739 287.608 242.505C287.51 243.055 283.042 241.258 282.541 241.523C277.709 243.831 272.112 244.115 266.829 243.251C261.705 242.365 256.696 240.912 251.893 238.921" fill="#263238"/>
<path d="M225.192 236.927L271.601 239.981C284.564 240.619 294.993 248.682 294.001 261.585L293.844 262.773C293.06 268.549 290.132 273.818 285.642 277.533C281.152 281.248 275.428 283.138 269.608 282.826C258.374 282.207 245.971 281.392 240.03 280.508C227.706 278.721 227.47 266.122 227.47 266.122C227.47 266.122 226.371 265.984 222.737 265.651L210.953 257.156L225.192 236.927Z" fill="#FFBF9D"/>
<path d="M227.47 266.122C228.252 260.425 230.655 255.074 234.393 250.705C234.393 250.705 224.573 253.317 224.033 265.768L227.47 266.122Z" fill="#FF9A6C"/>
<path d="M260.868 271.66C261.124 271.857 260.299 273.32 260.544 275.215C260.79 277.111 261.919 278.377 261.713 278.613C261.507 278.849 261.183 278.564 260.662 278.014C259.99 277.263 259.565 276.324 259.445 275.323C259.314 274.334 259.503 273.33 259.985 272.456C260.358 271.818 260.751 271.572 260.868 271.66Z" fill="#263238"/>
<path d="M262.242 254.711C262.468 254.937 261.457 256.272 261.427 258.187C261.398 260.102 262.341 261.516 262.095 261.713C261.997 261.821 261.584 261.585 261.113 260.966C260.555 260.13 260.267 259.143 260.288 258.138C260.312 257.137 260.656 256.17 261.27 255.379C261.722 254.799 262.193 254.603 262.242 254.711Z" fill="#263238"/>
<path d="M251.107 265.68C251.28 266.721 251.326 267.78 251.244 268.832C251.244 269.323 251.244 269.814 251.578 269.922C252.074 270.034 252.592 269.989 253.061 269.795L256.94 268.862C262.459 267.585 266.966 266.731 267.015 266.957C267.064 267.183 262.635 268.39 257.117 269.667L253.189 270.541C252.555 270.774 251.859 270.774 251.225 270.541C251.063 270.448 250.925 270.319 250.821 270.164C250.717 270.009 250.65 269.832 250.626 269.647C250.591 269.37 250.591 269.09 250.626 268.813C250.651 267.752 250.813 266.699 251.107 265.68Z" fill="#263238"/>
<path d="M272.436 262.273C271.994 261.948 272.75 260.181 273.103 257.942C273.457 255.703 273.359 253.798 273.889 253.641C274.134 253.572 274.527 254.014 274.812 254.849C275.14 255.957 275.21 257.126 275.018 258.267C274.825 259.407 274.376 260.488 273.702 261.428C273.162 262.135 272.652 262.42 272.436 262.273Z" fill="#263238"/>
<path d="M270.049 280.341C269.666 279.89 270.305 278.377 270.55 276.541C270.796 274.705 270.668 273.074 271.169 272.77C271.404 272.633 271.807 272.937 272.151 273.673C272.545 274.682 272.66 275.777 272.485 276.845C272.354 277.922 271.929 278.941 271.257 279.791C270.737 280.381 270.265 280.538 270.049 280.341Z" fill="#263238"/>
<path d="M262.332 239.755C262.45 239.559 265.985 231.614 257.52 230.74C249.055 229.866 249.919 238.596 250.155 238.596C250.391 238.596 262.332 239.755 262.332 239.755Z" fill="#FFBF9D"/>
<path d="M253.63 236.338C253.63 236.338 253.542 236.181 253.454 235.916C253.345 235.55 253.38 235.156 253.552 234.816C253.974 233.952 255.467 233.343 256.999 233.461C257.727 233.513 258.435 233.728 259.071 234.089C259.319 234.202 259.538 234.372 259.708 234.585C259.879 234.799 259.997 235.049 260.053 235.317C260.079 235.492 260.043 235.671 259.952 235.824C259.861 235.976 259.719 236.092 259.552 236.151C259.306 236.24 259.139 236.151 259.12 236.21C259.1 236.269 259.247 236.407 259.601 236.377C259.817 236.348 260.018 236.248 260.17 236.092C260.369 235.876 260.475 235.59 260.465 235.297C260.433 234.943 260.311 234.604 260.11 234.311C259.909 234.019 259.635 233.783 259.316 233.628C258.622 233.186 257.829 232.926 257.008 232.871C255.29 232.744 253.601 233.451 253.13 234.639C253.039 234.859 252.999 235.097 253.012 235.335C253.026 235.573 253.093 235.805 253.208 236.014C253.434 236.299 253.621 236.367 253.63 236.338Z" fill="#FF9A6C"/>
<path d="M284.161 278.701C284.789 280.145 289.621 276.443 291.477 273.222C294.266 268.312 296.387 260.691 295.532 255.87C294.462 250.056 292.095 245.068 287.215 241.768C282.224 238.534 276.462 236.687 270.521 236.416C268.725 236.177 266.898 236.421 265.228 237.123C263.264 238.105 261.85 240.295 259.267 239.952C258.802 239.874 258.326 239.891 257.867 240.001C257.408 240.11 256.976 240.311 256.596 240.59C254.799 241.984 256.174 244.027 257.647 245.048C260.789 247.218 264.737 247.808 268.527 248.328C271.201 248.844 273.941 248.921 276.639 248.554C278.092 248.269 279.486 247.729 280.95 247.572C281.676 247.422 282.427 247.433 283.149 247.602C283.872 247.772 284.549 248.097 285.133 248.554C285.364 248.788 285.574 249.041 285.761 249.31C286.681 250.59 287.243 252.09 287.392 253.659C287.54 255.227 287.269 256.807 286.606 258.236C284.465 262.852 281.175 270.767 282.59 273.055C284.632 276.335 286.085 277.209 286.085 277.209L284.161 278.701Z" fill="#263238"/>
<path d="M262.48 235.621C262.321 234.618 261.883 233.68 261.216 232.914C260.549 232.148 259.681 231.586 258.709 231.29C258.709 231.222 259.092 231.182 259.691 231.34C260.453 231.551 261.136 231.981 261.655 232.577C262.176 233.165 262.517 233.891 262.637 234.668C262.637 235.258 262.549 235.621 262.48 235.621Z" fill="white"/>
<path d="M246.953 261.281C246.764 260.835 246.416 260.476 245.977 260.271C245.539 260.066 245.04 260.031 244.577 260.171L244.822 260.063C244.39 260.004 243.951 260.096 243.579 260.323C243.207 260.551 242.925 260.899 242.78 261.31C242.654 261.728 242.654 262.173 242.78 262.59C242.906 263.007 243.151 263.379 243.487 263.657C243.861 263.96 244.32 264.139 244.801 264.169C245.281 264.198 245.759 264.078 246.168 263.824C246.565 263.55 246.859 263.15 247.001 262.688C247.144 262.227 247.127 261.731 246.953 261.281Z" fill="#FF9A6C"/>
<path d="M246.482 263.47C246.766 263.136 246.922 262.711 246.924 262.272C246.962 261.814 246.87 261.355 246.659 260.947C246.274 260.549 245.749 260.316 245.196 260.299C244.642 260.213 244.077 260.332 243.605 260.633C243.414 260.752 243.25 260.91 243.123 261.096C242.997 261.281 242.91 261.492 242.868 261.713C242.83 262.146 242.923 262.58 243.133 262.96C243.133 262.96 242.976 262.96 242.809 262.724C242.59 262.419 242.482 262.048 242.505 261.673C242.531 261.391 242.619 261.117 242.761 260.871C242.903 260.625 243.097 260.413 243.33 260.25C243.899 259.846 244.604 259.68 245.294 259.788C245.639 259.802 245.977 259.89 246.285 260.046C246.594 260.202 246.865 260.422 247.081 260.691C247.34 261.186 247.423 261.754 247.317 262.302C247.285 262.668 247.133 263.013 246.885 263.284C246.619 263.48 246.482 263.5 246.482 263.47Z" fill="#263238"/>
<g opacity="0.1">
<path d="M294.542 253.601C293.194 249.248 290.566 245.401 286.999 242.563C283.433 239.725 279.094 238.028 274.549 237.693L271.131 237.536C270.537 237.456 269.932 237.513 269.364 237.703C269.08 237.804 268.84 237.998 268.679 238.253C268.519 238.507 268.449 238.808 268.48 239.107C268.627 239.775 269.364 240.089 270.022 240.266C273.95 241.317 278.074 241.12 281.874 242.456C285.51 243.735 288.53 246.338 290.332 249.745C292.134 253.152 292.585 257.114 291.596 260.839C291.4 261.393 291.314 261.98 291.341 262.567C291.358 262.862 291.474 263.142 291.67 263.363C291.866 263.584 292.13 263.732 292.421 263.785C292.693 263.763 292.956 263.676 293.186 263.53C293.417 263.385 293.609 263.186 293.747 262.95C295.701 260.348 295.504 256.705 294.542 253.601Z" fill="white"/>
</g>
<path d="M260.17 261.909C260.17 261.968 259.729 261.978 259.11 261.693C258.294 261.308 257.646 260.64 257.285 259.813C256.923 258.986 256.874 258.056 257.146 257.196C257.362 256.547 257.666 256.214 257.715 256.273C257.765 256.331 257.607 256.675 257.499 257.255C257.346 258.038 257.435 258.849 257.754 259.581C258.073 260.312 258.608 260.929 259.287 261.349C259.807 261.713 260.229 261.831 260.17 261.909Z" fill="#FF9A6C"/>
<path d="M257.727 278.043C257.306 277.232 257.164 276.304 257.324 275.404C257.484 274.504 257.936 273.682 258.61 273.065C258.738 273.163 258.061 274.115 257.825 275.5C257.589 276.885 257.874 278.004 257.727 278.043Z" fill="#FF9A6C"/>
<path d="M167.922 310.616C168.511 310.4 210.148 312.433 223.66 313.621C237.173 314.81 260.593 321.183 261.752 337.091C262.734 349.857 262.508 438.826 262.508 438.826H226.174L225.31 344.8L168.874 330.561L167.922 310.616Z" fill="#263238"/>
<g opacity="0.3">
<path d="M197.766 316.607C197.766 316.607 217.995 320.26 234.149 324.846C250.303 329.431 257.432 339.242 259.789 345.085C262.146 350.927 263.265 359.657 258.306 367.847C255.173 373.032 239.471 391.278 239.471 391.278C239.471 391.278 236.231 338.918 236.073 338.122C235.916 337.327 197.766 316.607 197.766 316.607Z" fill="black"/>
</g>
<path d="M258.011 351.036C256.302 340.941 244.872 333.88 230.858 328.626C217.051 323.432 180.924 310.597 180.924 310.597L172.272 308.466H168.403L167.127 304.636C167.127 304.636 142.577 297.536 107.117 310.616L105.909 311.598C105.909 311.598 104.838 337.464 109.837 343.022C109.837 343.022 166.321 342.227 169.287 342.472C172.253 342.718 213.673 361.513 213.673 361.513L178.213 415.906L207.536 436.391C207.536 436.391 225.212 411.193 236.014 396.129C251.441 374.505 260.034 362.957 258.011 351.036Z" fill="#263238"/>
<path d="M258.011 351.035C258.011 351.035 258.099 351.644 258.247 352.833C258.397 354.592 258.331 356.363 258.05 358.106C257.557 360.929 256.688 363.673 255.468 366.266C253.83 369.787 251.943 373.187 249.821 376.44C245.127 383.834 238.764 392.397 231.703 402.492L207.703 436.509L207.585 436.676L207.418 436.558L178.086 416.093L177.909 415.965L178.027 415.779C188.878 399.134 200.849 380.741 213.468 361.376L213.566 361.739C205.71 358.178 197.651 354.577 189.389 350.937C185.265 349.14 181.111 347.333 176.898 345.576C174.787 344.721 172.675 343.818 170.515 343.071C170.255 342.976 169.989 342.898 169.719 342.836C169.458 342.746 169.181 342.706 168.904 342.718C168.345 342.718 167.765 342.718 167.196 342.718H163.729C145.219 342.816 127.169 343.071 109.847 343.297H109.729L109.651 343.219C108.785 342.11 108.145 340.842 107.765 339.487C107.349 338.178 107.02 336.843 106.783 335.49C106.312 332.829 105.984 330.144 105.801 327.448C105.457 322.096 105.428 316.832 105.595 311.647V311.539L105.683 311.471L106.891 310.489C116.909 306.788 127.344 304.334 137.962 303.183C142.931 302.65 147.933 302.486 152.927 302.692C157.727 302.78 162.504 303.359 167.186 304.42H167.294V304.528C167.736 305.873 168.148 307.13 168.561 308.368L168.364 308.23H172.292L180.954 310.371L216.07 323.088L230.505 328.322C234.549 329.813 238.486 331.578 242.289 333.605C249.163 337.258 253.739 341.549 255.772 345.153C256.23 345.931 256.637 346.738 256.99 347.569C257.229 348.18 257.435 348.802 257.608 349.435C257.844 350.466 257.942 350.986 257.942 350.986C257.942 350.986 257.805 350.466 257.559 349.445C257.442 348.934 257.167 348.335 256.911 347.608C256.784 347.235 256.558 346.872 256.371 346.469C256.171 346.033 255.938 345.613 255.674 345.212C253.622 341.648 249.045 337.415 242.181 333.792C238.376 331.788 234.439 330.046 230.397 328.577L216.04 323.431L180.904 310.783L172.253 308.652H168.325V308.515L166.94 304.695L167.088 304.832C162.486 303.757 157.788 303.152 153.065 303.025C148.093 302.826 143.114 302.997 138.168 303.536C127.59 304.693 117.194 307.146 107.215 310.842H107.284L106.076 311.824L106.164 311.647C105.997 316.803 106.037 322.076 106.38 327.359C106.547 330.038 106.856 332.707 107.304 335.353C107.552 336.681 107.88 337.993 108.286 339.281C108.648 340.569 109.255 341.776 110.073 342.836L109.886 342.747C127.219 342.522 145.238 342.256 163.778 342.158H167.245C167.824 342.158 168.404 342.158 168.983 342.158C169.283 342.156 169.582 342.202 169.867 342.296C170.161 342.359 170.45 342.444 170.731 342.551C172.921 343.307 175.022 344.201 177.143 345.065C181.356 346.823 185.52 348.63 189.634 350.436C197.87 354.05 205.932 357.651 213.821 361.238L214.086 361.356L213.929 361.602L178.459 415.985L178.4 415.671L207.703 436.175H207.418L231.487 402.198C238.567 392.122 244.96 383.54 249.674 376.224C251.788 373.015 253.675 369.661 255.32 366.188C256.547 363.614 257.429 360.89 257.942 358.086C258.231 356.351 258.317 354.588 258.198 352.833C258.06 351.654 258.011 351.035 258.011 351.035Z" fill="#455A64"/>
<path d="M231.271 354.885C230.344 355.102 229.407 355.269 228.462 355.386C223.963 356.206 219.672 357.908 215.834 360.394C214.361 361.376 213.496 362.004 213.438 361.945C214.08 361.233 214.817 360.612 215.627 360.099C217.514 358.757 219.559 357.653 221.716 356.81C223.87 355.964 226.119 355.38 228.413 355.071C229.355 354.895 230.314 354.832 231.271 354.885Z" fill="#455A64"/>
<path d="M224.898 265.503V268.616L217.307 269.323L216.875 267.732L218.918 262.989L224.898 265.503Z" fill="#C75B52"/>
<path d="M218.967 267.958L209.167 287.579L211.337 322.793L206.417 330.472L201.242 321.615L202.136 288.109L217.396 266.515L218.967 267.958Z" fill="#C75B52"/>
<path d="M221.932 235.218C221.932 235.218 208.105 229.975 194.74 229.101C181.375 228.227 164.848 237.192 156.953 240.698C149.058 244.204 118.871 274.086 112.341 284.024C108.599 289.739 103.611 302.682 103.611 302.682C102.766 307.199 105.918 311.598 105.918 311.598L166.694 312.05H178.095L182.917 301.749C182.917 301.749 192.118 301.091 194.75 296.053C197.382 291.016 207.025 283.562 207.025 283.562L218.004 265.395L225.231 266.927L229.238 236.063L221.932 235.218Z" fill="#E0E0E0"/>
<path d="M176.878 249.035C176.827 249.398 176.735 249.754 176.603 250.096C176.377 250.881 176.092 251.824 175.749 252.943C174.844 256.075 174.103 259.251 173.529 262.459C172.971 265.673 172.588 268.915 172.38 272.171C172.322 273.33 172.263 274.322 172.223 275.117C172.226 275.483 172.19 275.849 172.115 276.207C172.035 275.85 172.002 275.483 172.017 275.117C172.017 274.42 172.017 273.399 172.017 272.171C172.108 268.878 172.436 265.597 172.999 262.351C173.569 259.121 174.363 255.935 175.376 252.816C175.768 251.618 176.122 250.665 176.358 250.017C176.492 249.671 176.667 249.341 176.878 249.035Z" fill="#263238"/>
<path d="M203.52 370.126C203.52 370.126 207.684 374.977 208.97 376.734C210.129 378.306 211.278 384.06 211.72 389.677C211.751 390.011 211.699 390.347 211.567 390.656C211.436 390.965 211.231 391.236 210.969 391.445C210.707 391.655 210.397 391.796 210.067 391.856C209.737 391.916 209.397 391.892 209.078 391.788C208.8 391.682 208.555 391.505 208.367 391.274C208.179 391.043 208.055 390.766 208.008 390.473C207.114 386.407 206.878 384.679 206.878 384.679C206.761 382.715 206.554 382.99 206.495 384.315C206.437 385.641 207.477 392.977 207.477 392.977C207.477 392.977 210.286 402.983 209.53 404.103C209.369 404.325 209.159 404.509 208.917 404.639C208.675 404.77 208.407 404.844 208.132 404.856C207.857 404.869 207.583 404.819 207.33 404.71C207.078 404.602 206.853 404.438 206.672 404.23C206.289 403.71 203.127 395.392 203.127 395.392L202.292 390.836C202.292 390.836 203.923 405.232 203.009 406.361C202.874 406.567 202.692 406.738 202.478 406.86C202.264 406.982 202.024 407.052 201.777 407.063C201.531 407.075 201.286 407.028 201.061 406.926C200.837 406.825 200.64 406.672 200.486 406.479C199.847 405.91 199.199 399.546 199.199 399.546L197.716 391.052L197.982 407.245C197.982 407.245 197.815 408.777 196.607 408.836C195.399 408.895 194.643 407.117 194.643 407.117L192.905 390.423C192.905 390.423 193.464 399.703 192.836 400.194C192.001 400.842 191.245 400.626 190.97 399.91C190.41 398.466 189.595 390.09 189.595 390.09L188.829 374.201L188.27 368.947L202.175 363.968L203.52 370.126Z" fill="#FFBF9D"/>
<g opacity="0.3">
<path d="M173.392 270.894C169.072 284.269 166.027 298.023 164.299 311.971C164.469 317.021 165.047 322.049 166.027 327.006C167.628 334.95 180.659 369.399 180.659 369.399L189.585 370.175L182.063 308.976L189.585 280.371L173.392 270.894Z" fill="black"/>
</g>
<path d="M213.408 244.803C219.526 246.688 220.675 259.091 219.359 262.626C215.146 273.968 201.683 284.623 201.879 284.004L193.13 318.806L205.532 365.942L185.48 373.121C185.48 373.121 167.185 324.728 166.822 317.147C166.459 309.566 171.909 289.808 172.714 277.994C173.235 270.403 177.084 255.006 186.462 245.942" fill="#E0E0E0"/>
<path d="M186.472 245.873C186.472 245.873 186.325 246.05 186.02 246.384C185.716 246.718 185.245 247.199 184.665 247.867C183.014 249.836 181.542 251.949 180.266 254.181C178.271 257.742 176.658 261.505 175.454 265.405C174.679 267.838 174.059 270.318 173.598 272.829C173.362 274.165 173.146 275.539 173.019 276.963C172.891 278.387 172.803 279.909 172.596 281.372C171.889 287.382 170.573 293.893 169.248 300.904C168.6 304.4 167.912 308.034 167.421 311.795C167.141 313.693 167.052 315.614 167.156 317.53L167.362 318.963L167.696 320.397C167.902 321.379 168.177 322.361 168.452 323.343C169.523 327.212 170.799 331.14 172.135 335.127C173.47 339.114 174.884 343.209 176.348 347.363C179.294 355.661 182.416 364.243 185.716 373.022L185.392 372.875L194.711 369.536L205.444 365.697L205.287 366.001C200.878 349.238 196.704 333.35 192.904 318.865V318.747C196.155 305.903 199.11 294.197 201.693 283.955L202.056 284.053C202.065 284.027 202.066 283.999 202.061 283.972C202.056 283.944 202.044 283.919 202.026 283.898C202.009 283.876 201.986 283.859 201.961 283.849C201.935 283.838 201.907 283.834 201.88 283.837H201.939L202.076 283.759L202.351 283.572L202.901 283.16L203.961 282.305C204.649 281.716 205.317 281.127 205.925 280.528C207.222 279.34 208.439 278.122 209.579 276.904C211.734 274.623 213.704 272.173 215.471 269.579C217.034 267.334 218.305 264.898 219.251 262.331C219.737 260.088 219.797 257.772 219.428 255.507C218.878 251.392 217.523 248.328 216.05 246.669C215.302 245.841 214.375 245.197 213.34 244.783C213.34 244.783 213.615 244.881 214.135 245.097C214.46 245.233 214.765 245.415 215.038 245.637C215.444 245.915 215.81 246.245 216.128 246.619C217.651 248.23 219.074 251.313 219.634 255.457C219.793 256.55 219.878 257.653 219.89 258.757C219.924 259.98 219.792 261.203 219.497 262.39C218.56 264.989 217.289 267.455 215.716 269.726C213.952 272.343 211.982 274.816 209.824 277.12C208.675 278.348 207.457 279.575 206.161 280.773C205.513 281.382 204.845 281.981 204.197 282.57C203.853 282.855 203.5 283.15 203.137 283.435L202.577 283.857L202.282 284.053L202.125 284.151H202.027H201.939C201.904 284.156 201.869 284.151 201.836 284.139C201.804 284.127 201.775 284.107 201.751 284.08C201.728 284.054 201.712 284.023 201.703 283.989C201.695 283.956 201.695 283.92 201.703 283.886L202.076 283.985L193.366 318.796V318.679L205.788 365.815L205.847 366.04L205.631 366.119L194.898 369.959L185.569 373.297L185.333 373.386L185.245 373.15C181.945 364.361 178.822 355.769 175.886 347.471C174.433 343.317 173.009 339.232 171.683 335.225C170.357 331.219 169.091 327.271 168.01 323.382C167.735 322.4 167.47 321.418 167.264 320.436C167.146 319.945 167.038 319.454 166.93 318.983C166.822 318.512 166.783 318.001 166.714 317.49C166.611 315.548 166.706 313.6 166.999 311.677C167.5 307.886 168.187 304.263 168.855 300.757C170.2 293.746 171.536 287.255 172.263 281.255C172.469 279.762 172.547 278.309 172.695 276.865C172.842 275.421 173.058 274.037 173.303 272.701C173.776 270.182 174.409 267.696 175.199 265.258C176.422 261.346 178.068 257.579 180.109 254.024C181.398 251.786 182.901 249.678 184.596 247.729C185.794 246.482 186.472 245.873 186.472 245.873Z" fill="#263238"/>
<path d="M218.985 252.855C218.885 251.987 218.885 251.111 218.985 250.243C219.081 248.146 219.284 246.054 219.594 243.978C219.903 241.901 220.322 239.843 220.851 237.811C221.021 236.953 221.295 236.119 221.666 235.326C221.582 236.192 221.428 237.049 221.205 237.889C220.881 239.461 220.468 241.641 220.105 244.056C219.741 246.472 219.506 248.672 219.349 250.272C219.306 251.143 219.184 252.007 218.985 252.855Z" fill="#263238"/>
<g opacity="0.3">
<path d="M221.206 236.053C221 235.965 220.784 236.171 220.646 236.357C219.363 237.847 218.338 239.539 217.612 241.366C216.522 244.626 217.681 248.24 218.672 251.578C219.596 254.764 219.929 258.093 219.654 261.399L219.409 262.547C220.465 260.479 220.763 258.106 220.253 255.84C219.737 253.597 219.338 251.329 219.055 249.045C218.829 244.832 220.528 240.786 221.373 236.662C221.422 236.466 221.432 236.141 221.206 236.053Z" fill="black"/>
</g>
<path d="M152.691 328.322H146.436V373.081H152.691V328.322Z" fill="#E0E0E0"/>
<path d="M57.0058 299.078C57.5645 300.401 58.5874 301.475 59.8823 302.097C61.1771 302.719 62.6546 302.847 64.0369 302.456C78.697 298.419 94.1546 298.26 108.895 301.994C129.585 307.13 137.137 318.276 139.945 325.287C140.634 326.966 141.809 328.4 143.319 329.407C144.829 330.413 146.606 330.945 148.42 330.934H149.265C150.137 330.928 150.998 330.728 151.784 330.348C152.57 329.969 153.262 329.42 153.81 328.741C154.357 328.061 154.747 327.269 154.951 326.42C155.156 325.572 155.169 324.688 154.99 323.834C152.849 314.112 139.916 297.222 116.8 290.976C88.9797 283.454 69.6637 288.462 60.6784 291.261C59.9062 291.508 59.1931 291.911 58.5838 292.445C57.9745 292.98 57.4821 293.635 57.1374 294.369C56.7927 295.102 56.6031 295.899 56.5804 296.709C56.5578 297.52 56.7026 298.326 57.0058 299.078Z" fill="#455A64"/>
<path d="M57.0047 299.078C57.0047 299.078 56.9164 298.891 56.7789 298.508C56.5421 297.755 56.4592 296.961 56.5351 296.175C56.611 295.389 56.8442 294.626 57.2208 293.932C57.8725 292.746 58.9128 291.82 60.1668 291.31C68.1791 288.66 76.5282 287.165 84.9623 286.872C90.7782 286.664 96.6011 286.97 102.363 287.785C103.915 288.03 105.496 288.256 107.087 288.531L111.928 289.513L116.838 290.731C118.468 291.261 120.167 291.713 121.817 292.312C123.467 292.911 125.156 293.539 126.786 294.335C127.601 294.728 128.445 295.061 129.25 295.503L131.686 296.809C134.97 298.676 138.076 300.839 140.966 303.271C143.955 305.799 146.664 308.64 149.048 311.746L149.951 312.934L150.786 314.191C151.051 314.603 151.345 315.016 151.601 315.448L152.347 316.764C153.364 318.531 154.184 320.405 154.792 322.351C154.92 322.852 155.067 323.333 155.195 323.844C155.295 324.361 155.331 324.889 155.303 325.415C155.209 326.994 154.505 328.476 153.34 329.546C152.175 330.616 150.639 331.191 149.057 331.15C147.032 331.262 145.022 330.744 143.303 329.667C141.614 328.596 140.315 327.008 139.601 325.14C138.892 323.394 138.017 321.721 136.989 320.142C136.507 319.337 135.928 318.61 135.388 317.864C134.848 317.117 134.249 316.41 133.611 315.752C131.18 313.112 128.398 310.818 125.342 308.937C122.431 307.154 119.356 305.651 116.16 304.449C113.131 303.34 110.031 302.435 106.881 301.739C101.238 300.439 95.4827 299.693 89.6955 299.51C81.3076 299.226 72.9235 300.175 64.8117 302.328C64.1374 302.551 63.4381 302.69 62.7298 302.741C61.926 302.776 61.1236 302.645 60.3721 302.358C59.6205 302.071 58.9357 301.633 58.3599 301.071C57.7844 300.521 57.3383 299.851 57.0538 299.107C57.3979 299.823 57.8668 300.471 58.4385 301.022C59.133 301.664 59.9717 302.128 60.8836 302.377C61.4737 302.527 62.0824 302.59 62.6905 302.564C63.3853 302.502 64.0706 302.36 64.7331 302.142C72.8685 299.91 81.2937 298.917 89.725 299.196C95.5469 299.338 101.34 300.062 107.018 301.356C110.187 302.05 113.307 302.952 116.357 304.057C119.588 305.262 122.695 306.774 125.637 308.574C128.733 310.468 131.551 312.781 134.013 315.448C134.661 316.106 135.211 316.862 135.82 317.579C136.429 318.296 136.949 319.081 137.44 319.896C138.493 321.497 139.384 323.197 140.102 324.973C140.783 326.744 142.015 328.248 143.617 329.265C145.255 330.286 147.169 330.777 149.097 330.669C150.549 330.71 151.961 330.183 153.032 329.2C154.102 328.217 154.748 326.856 154.832 325.405C154.858 324.922 154.825 324.437 154.733 323.962C154.616 323.481 154.468 322.98 154.341 322.518C153.743 320.607 152.94 318.766 151.945 317.029L151.228 315.713C150.972 315.291 150.688 314.878 150.413 314.466L149.558 313.258L148.665 312.08C146.303 309.005 143.62 306.19 140.661 303.683C137.796 301.27 134.716 299.124 131.46 297.271L129.054 295.965C128.259 295.523 127.414 295.199 126.609 294.806C124.989 294.011 123.319 293.422 121.699 292.793C120.079 292.165 118.38 291.732 116.789 291.212L111.879 289.985L107.057 289.003C105.466 288.718 103.895 288.492 102.354 288.237C96.6153 287.409 90.8162 287.081 85.0212 287.255C76.6206 287.516 68.2979 288.951 60.2945 291.516C59.0711 291.992 58.0531 292.882 57.4172 294.03C56.9408 294.863 56.6809 295.801 56.6611 296.76C56.6375 297.547 56.7539 298.332 57.0047 299.078Z" fill="#263238"/>
<path d="M67.2674 296.711C67.2674 297.649 66.9892 298.566 66.468 299.346C65.9468 300.126 65.2061 300.734 64.3394 301.093C63.4727 301.452 62.5191 301.546 61.599 301.363C60.6789 301.18 59.8338 300.728 59.1705 300.065C58.5071 299.402 58.0554 298.557 57.8724 297.637C57.6894 296.716 57.7833 295.763 58.1423 294.896C58.5013 294.029 59.1092 293.289 59.8892 292.767C60.6692 292.246 61.5862 291.968 62.5243 291.968C63.1475 291.967 63.7649 292.089 64.3409 292.327C64.917 292.564 65.4404 292.914 65.881 293.354C66.3217 293.795 66.6711 294.319 66.909 294.895C67.1469 295.471 67.2687 296.088 67.2674 296.711Z" fill="white"/>
<path d="M348.609 264.993H370.979L369.231 277.297C369.231 277.297 367.778 283.346 364.321 283.346H354.629C353.438 282.616 352.406 281.652 351.596 280.513C350.786 279.374 350.214 278.083 349.915 276.718L348.609 264.993Z" fill="#7A2D26"/>
<path d="M348.609 264.993C348.642 265.122 348.665 265.253 348.678 265.385C348.678 265.66 348.767 266.024 348.835 266.475C348.963 267.457 349.149 268.842 349.385 270.57C349.621 272.299 349.896 274.44 350.21 276.845C350.515 278.161 351.082 279.401 351.876 280.493C352.671 281.584 353.677 282.505 354.835 283.199H354.747H362.495C363.182 283.199 363.879 283.199 364.557 283.199C365.227 283.161 365.863 282.89 366.354 282.433C367.381 281.448 368.152 280.228 368.603 278.878C368.801 278.361 368.972 277.833 369.114 277.297C369.713 272.947 370.282 268.813 370.803 264.993L370.979 265.199L354.924 265.111L350.298 265.061H349.051H348.609C348.743 265.045 348.878 265.045 349.012 265.061H350.22L354.806 265.012L370.979 264.924H371.176V265.12C370.655 268.94 370.096 273.084 369.516 277.425C369.377 277.979 369.203 278.523 368.996 279.055C368.517 280.465 367.705 281.738 366.629 282.767C366.075 283.277 365.359 283.576 364.606 283.611C363.899 283.611 363.212 283.611 362.524 283.611H354.776H354.727C353.532 282.888 352.496 281.929 351.682 280.793C350.868 279.657 350.294 278.367 349.994 277.003C349.67 274.538 349.454 272.387 349.248 270.62C349.041 268.852 348.904 267.507 348.806 266.525L348.688 265.454C348.643 265.304 348.617 265.149 348.609 264.993Z" fill="#263238"/>
<path d="M369.231 271.336L369.565 271.258C369.565 271.258 369.771 271.258 369.565 271.258C369.359 271.258 369.624 271.258 369.663 271.258C369.905 271.243 370.148 271.243 370.39 271.258C370.154 271.258 370.39 271.258 370.478 271.258L370.861 271.356L371.175 271.454C371.323 271.503 371.175 271.454 371.117 271.454L371.323 271.552C371.536 271.669 371.743 271.796 371.941 271.935C372.069 272.024 371.941 271.935 371.892 271.935L372.02 272.043C372.116 272.13 372.208 272.222 372.295 272.318C372.364 272.397 372.501 272.584 372.374 272.397C372.452 272.505 372.521 272.613 372.59 272.721C372.658 272.829 372.698 272.927 372.747 273.025C372.796 273.124 372.747 273.025 372.747 272.967C372.779 273.036 372.805 273.109 372.825 273.183C372.87 273.308 372.906 273.436 372.933 273.566C372.933 273.615 373.002 273.939 372.982 273.782C372.963 273.625 372.982 273.949 372.982 273.998C372.992 274.132 372.992 274.266 372.982 274.4C372.982 274.479 372.982 274.557 372.982 274.636C372.982 274.715 372.982 274.842 372.982 274.636C372.97 274.709 372.954 274.781 372.933 274.852C372.914 274.966 372.885 275.078 372.845 275.186C372.845 275.274 372.698 275.579 372.845 275.343C372.739 275.571 372.618 275.79 372.482 276.001L372.383 276.138C372.383 276.138 372.521 275.981 372.383 276.089C372.246 276.197 372.177 276.305 372.069 276.413C371.961 276.521 371.784 276.639 371.902 276.561C372.02 276.482 371.755 276.649 371.716 276.669L371.421 276.836L371.274 276.914C371.441 276.826 371.352 276.914 371.274 276.914C371.195 276.914 370.763 277.052 370.508 277.12C370.252 277.189 370.576 277.12 370.596 277.12H370.37H369.604H369.388L368.956 276.983C368.956 276.983 368.77 276.904 368.956 276.983C369.143 277.062 368.809 276.904 368.809 276.904C368.656 276.815 368.487 276.756 368.312 276.732C368.136 276.707 367.958 276.718 367.786 276.763C367.615 276.807 367.454 276.885 367.312 276.992C367.171 277.099 367.052 277.233 366.963 277.386C366.873 277.538 366.814 277.707 366.79 277.883C366.766 278.058 366.776 278.237 366.821 278.408C366.866 278.58 366.944 278.741 367.051 278.882C367.157 279.023 367.291 279.142 367.444 279.232C368.734 279.903 370.23 280.063 371.633 279.681C373.036 279.299 374.243 278.402 375.015 277.17C375.743 275.878 375.966 274.364 375.644 272.917C375.48 272.214 375.178 271.55 374.757 270.964C374.336 270.377 373.803 269.88 373.189 269.5C372.511 269.075 371.754 268.793 370.963 268.673C370.173 268.553 369.366 268.597 368.593 268.803C368.248 268.898 367.955 269.126 367.778 269.437C367.601 269.749 367.555 270.117 367.65 270.462C367.745 270.808 367.973 271.101 368.285 271.278C368.596 271.454 368.965 271.5 369.31 271.405L369.231 271.336Z" fill="#7A2D26"/>
<path d="M369.231 271.336C369.09 271.404 368.934 271.431 368.779 271.415C368.547 271.404 368.321 271.335 368.123 271.215C367.924 271.095 367.758 270.927 367.64 270.728C367.543 270.565 367.479 270.386 367.452 270.199C367.426 270.012 367.436 269.821 367.484 269.639C367.531 269.456 367.615 269.284 367.729 269.134C367.844 268.984 367.987 268.858 368.15 268.764C368.562 268.576 369.005 268.463 369.456 268.43C369.955 268.367 370.46 268.367 370.959 268.43C372.104 268.602 373.173 269.107 374.033 269.883C375.035 270.773 375.677 271.999 375.839 273.33C376.038 274.801 375.689 276.293 374.857 277.523C374.4 278.165 373.815 278.705 373.139 279.111C372.463 279.516 371.711 279.778 370.929 279.88C370.231 279.979 369.52 279.959 368.828 279.821C368.495 279.743 368.167 279.645 367.846 279.526L367.375 279.31C367.202 279.233 367.048 279.119 366.923 278.976C366.691 278.688 366.564 278.33 366.564 277.96C366.564 277.59 366.691 277.232 366.923 276.944C367.166 276.676 367.493 276.499 367.85 276.442C368.207 276.385 368.572 276.451 368.887 276.629L368.632 276.787C368.633 276.743 368.65 276.702 368.679 276.67C368.707 276.638 368.746 276.617 368.789 276.61C368.887 276.61 368.897 276.61 368.887 276.61H368.956C368.956 276.502 369.093 276.885 368.877 276.924H368.769H368.69V276.875C368.592 276.482 368.965 276.59 368.857 276.58C368.906 276.58 368.857 276.58 368.857 276.58H368.916L369.054 276.629C369.237 276.688 369.424 276.734 369.614 276.767C369.614 276.767 369.614 276.767 369.712 276.816C369.81 276.865 369.771 276.816 369.761 276.983C369.751 277.15 369.623 277.12 369.614 277.12H369.525H369.447H369.378C369.378 277.12 369.28 277.071 369.329 276.904C369.378 276.737 369.456 276.826 369.476 276.816H369.918C370.104 276.826 370.291 276.826 370.478 276.816V277.15H370.419H370.33C370.286 277.15 370.244 277.132 370.213 277.101C370.193 277.074 370.182 277.041 370.182 277.007C370.182 276.974 370.193 276.941 370.213 276.914C370.213 276.845 370.213 276.865 370.213 276.855L370.291 276.806H370.448L370.733 276.728L371.028 276.649H371.155C371.087 276.58 371.155 276.983 371.253 276.934H371.322H371.263L371.106 276.639L371.489 276.433L371.666 276.325C371.701 276.315 371.739 276.315 371.774 276.325C371.806 276.335 371.836 276.352 371.862 276.374C371.889 276.406 371.903 276.446 371.903 276.487C371.903 276.528 371.889 276.568 371.862 276.6H371.803C371.772 276.612 371.737 276.612 371.705 276.6C371.678 276.595 371.652 276.583 371.63 276.566C371.607 276.549 371.59 276.527 371.578 276.502C371.519 276.413 371.636 276.286 371.578 276.315C371.691 276.234 371.796 276.142 371.892 276.04L372.029 275.893C372.029 275.893 372.196 275.893 372.235 276.001C372.275 276.109 372.235 276.079 372.235 276.099L372.177 276.168L371.921 275.981C372.098 275.736 372.226 275.471 372.373 275.225L372.648 275.353V275.402C372.648 275.402 372.648 275.402 372.53 275.402C372.511 275.401 372.492 275.396 372.474 275.387C372.457 275.378 372.441 275.366 372.429 275.352C372.416 275.337 372.406 275.32 372.4 275.302C372.394 275.284 372.391 275.264 372.393 275.245V275.137C372.42 275.076 372.443 275.014 372.461 274.95C372.461 274.823 372.53 274.695 372.56 274.567V274.469C372.56 274.469 372.56 274.469 372.618 274.381C372.639 274.369 372.663 274.362 372.687 274.362C372.711 274.362 372.735 274.369 372.756 274.381H372.815C372.825 274.419 372.825 274.46 372.815 274.498V274.597C372.913 274.705 372.402 274.656 372.54 274.597V274.508C372.535 274.479 372.535 274.449 372.54 274.42C372.54 274.292 372.54 274.165 372.54 274.047C372.55 273.926 372.55 273.804 372.54 273.683V273.575C372.542 273.552 372.55 273.529 372.562 273.509C372.574 273.489 372.59 273.471 372.609 273.458C372.629 273.443 372.653 273.435 372.677 273.435C372.702 273.435 372.726 273.443 372.746 273.458C372.757 273.461 372.768 273.468 372.776 273.476C372.785 273.485 372.791 273.495 372.795 273.507C372.795 273.556 372.795 273.556 372.795 273.556V273.615C372.799 273.634 372.799 273.654 372.795 273.674C372.795 273.674 372.795 273.674 372.717 273.723C372.687 273.731 372.655 273.728 372.626 273.716C372.597 273.703 372.574 273.682 372.56 273.654L372.51 273.438C372.462 273.215 372.4 272.995 372.324 272.78L372.56 272.692V272.741C372.562 272.756 372.562 272.771 372.558 272.786C372.555 272.801 372.548 272.814 372.539 272.826C372.53 272.839 372.518 272.848 372.505 272.856C372.491 272.863 372.476 272.867 372.461 272.868C372.363 272.868 372.363 272.868 372.353 272.868C372.353 272.868 372.353 272.79 372.285 272.75L372.186 272.544L371.951 272.181L372.147 272.053V272.102C372.157 272.119 372.162 272.137 372.162 272.156C372.162 272.175 372.157 272.194 372.147 272.21C372.136 272.227 372.122 272.24 372.105 272.249C372.087 272.258 372.068 272.263 372.049 272.263C372.029 272.263 372.01 272.258 371.993 272.249C371.976 272.24 371.961 272.227 371.951 272.21L371.882 272.122C371.838 272.065 371.789 272.012 371.735 271.965L371.45 271.69L371.587 271.533H371.646C371.411 271.857 371.548 271.611 371.499 271.68L371.371 271.602L371.126 271.444C370.983 271.346 370.832 271.261 370.674 271.189L370.753 271.022H370.831H370.89C370.89 271.022 370.939 271.14 370.89 271.16H370.841H371.195L371.037 271.101L370.743 271.012L370.468 270.944H370.34C370.399 270.944 370.222 271.012 370.34 270.806H370.448V270.944H369.8H369.555C369.555 270.944 369.555 270.944 369.555 270.885H369.702C369.702 270.885 369.702 270.885 369.702 270.934C369.702 270.983 369.702 270.934 369.702 270.934H369.623C369.501 270.962 369.376 270.979 369.25 270.983C369.365 270.926 369.487 270.886 369.614 270.865H369.663C369.663 270.934 369.663 270.865 369.663 270.865H369.555H370.448V271.003H370.34C370.458 270.786 370.271 270.885 370.34 270.865H370.497L370.792 270.924L371.096 271.012L371.253 271.061C371.195 271.297 371.195 271.209 371.185 271.219H371.087L371.165 271.052C371.328 271.125 371.486 271.211 371.636 271.307L371.892 271.454L372.029 271.533L371.98 271.611C371.98 271.611 371.98 271.543 371.98 271.611C371.98 271.68 371.98 271.611 371.98 271.611L371.911 271.552L372.049 271.395C372.155 271.482 372.257 271.573 372.353 271.67C372.353 271.729 372.461 271.769 372.52 271.837L372.589 271.926C372.589 271.926 372.54 271.926 372.52 271.926V271.877L372.717 271.749C372.795 271.867 372.884 271.985 372.962 272.122L373.07 272.328C373.07 272.328 373.139 272.387 373.07 272.436L373.001 272.495C372.976 272.487 372.948 272.487 372.923 272.495H372.874V272.426L373.109 272.338C373.198 272.565 373.27 272.798 373.326 273.035V273.124V273.192C373.326 273.192 373.325 273.192 373.247 273.192C373.168 273.192 373.247 273.192 373.198 273.192C373.149 273.192 373.198 273.192 373.198 273.192C373.187 273.188 373.175 273.185 373.163 273.185C373.152 273.185 373.14 273.188 373.129 273.192H373.07H373.149H373.198C373.198 273.192 373.247 273.192 373.257 273.192H373.159V273.261C373.159 273.379 373.159 273.526 373.159 273.654C373.173 273.784 373.173 273.916 373.159 274.047C373.164 274.083 373.164 274.119 373.159 274.155C373.159 274.155 373.109 274.155 373.041 274.155H372.874V274.066C372.874 274.066 372.972 274.066 372.952 274.066C373.168 274.066 373.08 274.066 373.1 274.066V274.165C373.1 274.292 373.031 274.44 372.992 274.577C372.976 274.648 372.953 274.717 372.923 274.783V274.872C372.54 274.714 372.677 274.754 372.668 274.734V274.685L372.943 274.813C372.785 275.078 372.658 275.363 372.471 275.628L372.216 275.441L372.285 275.363H372.344C372.344 275.363 372.412 275.363 372.432 275.431V275.48C372.432 275.48 372.491 275.559 372.481 275.539L372.334 275.696C372.233 275.802 372.124 275.901 372.01 275.991C371.941 275.932 371.941 275.883 371.921 275.893C371.902 275.903 371.921 275.893 371.921 275.844L371.872 275.755C371.872 275.755 371.921 275.814 371.872 275.824C371.823 275.834 371.872 275.913 371.872 275.913C371.872 275.913 371.872 275.863 371.872 275.913C371.87 275.933 371.875 275.954 371.886 275.971C371.896 275.989 371.912 276.003 371.931 276.011H371.882L371.695 276.129L371.303 276.345L371.145 276.05H371.214H371.332C371.479 276.05 371.509 276.413 371.43 276.335H371.381L371.224 276.394L370.929 276.472L370.625 276.551H370.478C370.478 276.551 370.478 276.629 370.419 276.404C370.419 276.404 370.419 276.207 370.419 276.227H370.556V276.561C370.357 276.576 370.157 276.576 369.957 276.561C369.856 276.57 369.754 276.57 369.653 276.561H369.545V276.394C369.545 276.394 369.545 276.296 369.545 276.246H369.653C369.653 276.246 369.653 276.325 369.653 276.335C369.653 276.345 369.653 276.335 369.653 276.394C369.653 276.453 369.653 276.394 369.653 276.394C369.653 276.394 369.653 276.394 369.653 276.462C369.661 276.491 369.661 276.522 369.653 276.551C369.451 276.512 369.251 276.463 369.054 276.404L368.907 276.354H368.818V276.296C368.82 276.263 368.82 276.23 368.818 276.197C368.946 275.942 368.877 276.06 368.897 276.03H368.956C368.956 276.03 368.956 276.148 368.907 276.168L368.828 276.305H368.759C368.794 276.315 368.832 276.315 368.867 276.305C368.894 276.3 368.92 276.288 368.942 276.271C368.964 276.254 368.982 276.232 368.995 276.207V276.158C368.995 276.158 368.995 276.158 368.857 276.158L368.74 276.325C368.501 276.196 368.226 276.15 367.958 276.192C367.69 276.235 367.444 276.364 367.257 276.561C367.086 276.781 366.993 277.052 366.993 277.332C366.993 277.611 367.086 277.882 367.257 278.102C367.485 278.298 367.748 278.448 368.033 278.544C368.336 278.658 368.648 278.747 368.965 278.809C369.611 278.945 370.276 278.969 370.929 278.878C371.664 278.788 372.371 278.546 373.007 278.167C373.643 277.788 374.193 277.281 374.622 276.678C375.423 275.536 375.773 274.136 375.604 272.75C375.462 271.497 374.868 270.338 373.934 269.49C373.114 268.736 372.089 268.24 370.988 268.066C370.101 267.9 369.186 267.975 368.337 268.282C368.185 268.372 368.052 268.492 367.945 268.633C367.839 268.775 367.762 268.936 367.718 269.107C367.649 269.402 367.699 269.712 367.856 269.971C367.954 270.155 368.094 270.313 368.265 270.432C368.435 270.552 368.632 270.629 368.838 270.659C368.934 270.903 369.067 271.131 369.231 271.336Z" fill="#C75B52"/>
<path d="M363.703 260.643C363.962 260.399 364.196 260.129 364.4 259.837C364.652 259.431 364.82 258.978 364.894 258.506C364.968 258.034 364.947 257.552 364.832 257.088C364.663 256.453 364.295 255.888 363.782 255.477C363.242 255.006 362.554 254.633 361.916 254.073C361.588 253.78 361.315 253.431 361.111 253.042C360.889 252.623 360.826 252.138 360.934 251.677C361.058 251.208 361.309 250.783 361.661 250.449C361.985 250.106 362.348 249.811 362.643 249.467C362.975 249.173 363.237 248.807 363.409 248.397C363.536 247.991 363.536 247.556 363.409 247.15C363.145 246.353 362.701 245.627 362.112 245.029C361.556 244.459 361.107 243.793 360.787 243.065C360.545 242.409 360.471 241.704 360.571 241.012C360.713 240.014 361.195 239.095 361.936 238.41C362.137 238.232 362.358 238.077 362.594 237.948L362.849 237.84C362.558 238.044 362.28 238.264 362.014 238.498C361.335 239.187 360.904 240.082 360.787 241.042C360.701 241.706 360.782 242.381 361.022 243.006C361.347 243.695 361.789 244.323 362.328 244.862C362.955 245.487 363.426 246.25 363.703 247.091C363.85 247.554 363.85 248.052 363.703 248.515C363.52 248.973 363.235 249.383 362.868 249.713C362.201 250.381 361.405 250.931 361.209 251.755C361.156 252.155 361.21 252.562 361.365 252.935C361.52 253.307 361.771 253.632 362.093 253.877C362.682 254.407 363.369 254.79 363.929 255.291C364.206 255.527 364.445 255.805 364.636 256.115C364.811 256.401 364.94 256.713 365.019 257.039C365.137 257.528 365.15 258.036 365.057 258.53C364.964 259.025 364.767 259.493 364.479 259.906C364.284 260.211 364.018 260.464 363.703 260.643Z" fill="#263238"/>
<path d="M359.41 260.643C359.664 260.396 359.895 260.127 360.098 259.837C360.354 259.433 360.525 258.98 360.599 258.507C360.674 258.034 360.65 257.551 360.53 257.088C360.37 256.448 360 255.881 359.479 255.477C358.939 255.006 358.252 254.633 357.623 254.073C357.293 253.783 357.019 253.433 356.818 253.042C356.593 252.624 356.527 252.139 356.631 251.677C356.763 251.212 357.013 250.789 357.358 250.449C357.692 250.106 358.045 249.811 358.34 249.467C358.667 249.169 358.925 248.804 359.096 248.397C359.232 247.992 359.232 247.554 359.096 247.15C358.832 246.353 358.389 245.627 357.8 245.029C357.244 244.456 356.792 243.792 356.464 243.065C356.223 242.409 356.148 241.704 356.248 241.012C356.39 240.011 356.876 239.091 357.623 238.41C357.821 238.228 358.042 238.072 358.281 237.948C358.36 237.899 358.446 237.862 358.536 237.84C358.246 238.044 357.967 238.264 357.702 238.498C357.023 239.189 356.588 240.082 356.464 241.042C356.377 241.707 356.462 242.383 356.71 243.006C357.035 243.695 357.477 244.323 358.016 244.862C358.639 245.489 359.11 246.252 359.391 247.091C359.538 247.554 359.538 248.052 359.391 248.515C359.204 248.971 358.919 249.38 358.556 249.713C357.888 250.381 357.083 250.931 356.887 251.755C356.836 252.155 356.891 252.562 357.046 252.934C357.201 253.306 357.451 253.631 357.77 253.877C358.36 254.407 359.057 254.79 359.607 255.291C359.887 255.527 360.129 255.805 360.324 256.115C360.49 256.406 360.619 256.716 360.707 257.039C360.82 257.528 360.83 258.035 360.737 258.529C360.644 259.022 360.45 259.491 360.167 259.906C359.975 260.207 359.716 260.459 359.41 260.643Z" fill="#263238"/>
<path d="M376.391 283.543C376.391 283.543 379.749 276.413 392.937 276.433H399.006C399.006 276.433 410.859 278.986 412.283 283.562L376.391 283.543Z" fill="#0E0D0D" fill-opacity="0.3"/>
<path d="M383.638 299.471L383.363 457.916H235.592V299.039H226.115V457.916V466.725H235.592H383.363H392.839V457.916L393.114 299.471H383.638Z" fill="#E0E0E0"/>
<path d="M383.637 299.51H393.114H393.163C393.163 320.633 393.094 381.114 393.035 466.764V466.961H392.799H226.075H225.859V466.715C225.859 420.286 225.859 369.762 225.859 317.333V298.774H235.846V299.029C235.846 355.081 235.846 408.591 235.846 457.907L235.611 457.671L383.382 457.72L383.195 457.907C383.48 360.139 383.657 300.944 383.657 299.461C383.657 300.944 383.657 360.139 383.578 457.907V458.093H383.382L235.611 458.142H235.375V457.907C235.375 408.591 235.375 355.081 235.375 299.029L235.63 299.284H226.154L226.409 299.029V317.333C226.409 369.762 226.409 420.286 226.409 466.715L226.164 466.47L392.888 466.519L392.691 466.715C392.907 381.065 393.055 320.584 393.114 299.461L393.163 299.51H383.637Z" fill="#263238"/>
<path d="M421.65 283.543H207.535V300.63H421.65V283.543Z" fill="#AE7461"/>
<path d="M261.211 283.229L260.661 283.356C260.307 283.425 259.777 283.503 259.099 283.661C257.744 283.936 255.8 284.407 253.433 285.104C251.067 285.801 248.268 286.744 245.185 287.844C242.101 288.944 238.723 290.181 235.099 291.291C231.699 292.345 228.212 293.1 224.68 293.549C221.813 293.915 218.912 293.938 216.039 293.618C214.088 293.398 212.167 292.96 210.314 292.312C209.81 292.141 209.315 291.944 208.831 291.723C208.497 291.585 208.33 291.497 208.33 291.497C208.33 291.497 208.517 291.546 208.86 291.674C209.204 291.801 209.695 292.017 210.353 292.204C212.211 292.801 214.127 293.203 216.068 293.402C218.944 293.693 221.843 293.653 224.71 293.284C228.221 292.816 231.686 292.054 235.07 291.006C238.684 289.896 242.062 288.669 245.155 287.589C248.248 286.508 251.047 285.575 253.424 284.908C255.305 284.36 257.212 283.908 259.139 283.553C259.816 283.415 260.356 283.356 260.71 283.297C261.063 283.238 261.211 283.229 261.211 283.229Z" fill="#6F4439"/>
<path d="M370.419 299.009C370.341 298.936 370.269 298.857 370.203 298.773C370.009 298.534 369.802 298.304 369.584 298.086C368.75 297.23 367.793 296.502 366.746 295.926C365.088 295.021 363.283 294.416 361.414 294.138C358.936 293.794 356.418 293.857 353.961 294.325C350.972 294.906 348.021 295.663 345.123 296.593C341.799 297.689 338.364 298.413 334.88 298.754C332.983 298.889 331.076 298.76 329.214 298.371C327.28 297.944 325.397 297.312 323.597 296.485C319.915 294.865 316.36 292.665 312.432 291.075C304.527 287.893 296.17 287.647 288.913 288.58C282.448 289.509 276.116 291.2 270.049 293.618C264.844 295.582 260.749 297.546 257.911 298.783L254.641 300.266C253.895 300.61 253.492 300.777 253.492 300.777C253.492 300.777 253.875 300.571 254.612 300.217L257.852 298.675C260.68 297.359 264.775 295.444 269.97 293.422C276.041 290.97 282.384 289.259 288.864 288.325C296.15 287.343 304.576 287.608 312.53 290.809C316.458 292.42 320.042 294.62 323.695 296.23C325.476 297.051 327.34 297.679 329.253 298.106C331.089 298.495 332.97 298.624 334.841 298.489C338.305 298.154 341.723 297.446 345.034 296.377C347.933 295.456 350.884 294.708 353.872 294.138C356.354 293.677 358.896 293.627 361.394 293.991C363.276 294.287 365.091 294.912 366.756 295.837C367.802 296.431 368.752 297.179 369.574 298.057C369.88 298.352 370.162 298.671 370.419 299.009Z" fill="#6F4439"/>
<path d="M420.403 288.826C418.14 289.71 415.813 290.419 413.441 290.947C412.341 291.202 411.133 291.467 409.827 291.654C408.521 291.841 407.107 292.037 405.624 292.204C399.171 292.783 392.667 292.305 386.367 290.79C384.924 290.417 383.549 290.083 382.302 289.651C381.055 289.219 379.876 288.826 378.825 288.423C376.554 287.556 374.354 286.511 372.246 285.3C372.406 285.355 372.56 285.424 372.708 285.507L374.014 286.125C374.573 286.41 375.271 286.744 376.096 287.107C376.92 287.471 377.843 287.883 378.904 288.246C379.965 288.61 381.104 289.061 382.371 289.435C383.637 289.808 385.002 290.181 386.436 290.544C392.7 292.01 399.156 292.474 405.565 291.919C407.038 291.762 408.443 291.644 409.749 291.408C411.055 291.173 412.253 290.976 413.353 290.741C414.452 290.505 415.434 290.24 416.299 290.014C417.163 289.788 417.899 289.582 418.488 289.386L419.873 288.953C420.045 288.894 420.223 288.851 420.403 288.826Z" fill="#6F4439"/>
<path d="M297.78 279.241H232.075C230.849 279.241 229.855 280.235 229.855 281.461V281.588C229.855 282.814 230.849 283.808 232.075 283.808H297.78C299.006 283.808 300 282.814 300 281.588V281.461C300 280.235 299.006 279.241 297.78 279.241Z" fill="#455A64"/>
<path d="M316.478 222.914L300.059 281.932C299.887 282.543 299.481 283.06 298.929 283.373C298.378 283.686 297.725 283.768 297.113 283.602C296.502 283.43 295.985 283.024 295.672 282.472C295.359 281.92 295.277 281.268 295.443 280.656L311.872 221.588C312.042 220.977 312.448 220.457 313 220.144C313.552 219.831 314.206 219.75 314.818 219.919C315.125 220.005 315.412 220.151 315.662 220.348C315.911 220.546 316.12 220.791 316.274 221.07C316.428 221.348 316.526 221.655 316.561 221.971C316.596 222.288 316.568 222.608 316.478 222.914Z" fill="#455A64"/>
<path d="M303.113 227.48C303.015 227.588 298.419 223.287 292.851 217.896C287.283 212.505 282.855 208.076 282.953 207.938C283.051 207.801 287.637 212.122 293.205 217.523C298.773 222.924 303.211 227.382 303.113 227.48Z" fill="#263238"/>
<path d="M300.875 234.541C300.313 234.378 299.765 234.171 299.235 233.922L294.865 232.086C291.163 230.534 286.027 228.423 280.361 226.194C274.695 223.965 269.471 222.04 265.71 220.665L261.212 218.986C260.659 218.814 260.12 218.597 259.602 218.338C260.174 218.442 260.736 218.596 261.281 218.799C262.351 219.133 263.893 219.634 265.788 220.282C269.589 221.569 274.803 223.444 280.518 225.683C286.233 227.922 291.32 230.092 294.973 231.723C296.81 232.547 298.283 233.225 299.294 233.687C299.84 233.934 300.369 234.22 300.875 234.541Z" fill="#263238"/>
<path d="M299.97 241.572C298.632 241.778 297.271 241.808 295.925 241.66C294.57 241.689 293.217 241.547 291.898 241.238C294.592 241.009 297.305 241.121 299.97 241.572Z" fill="#263238"/>
<path d="M298.891 436.185V465.753H342.128H389.824V436.185H298.891Z" fill="#C75B52" fill-opacity="0.6"/>
<path d="M295.07 427.916V436.185H392.995V427.916H342.128H295.07Z" fill="#C75B52" fill-opacity="0.4"/>
<path d="M309.496 390.119V398.388H407.431V390.119H356.554H309.496Z" fill="#7A2D26"/>
<path d="M358.026 427.956H404.249V398.388H406.989V390.119H356.121V397.622L358.026 427.956Z" fill="#C75B52" fill-opacity="0.4"/>
<path d="M340.5 404.625H329.25C328.631 404.625 328.125 405.131 328.125 405.75C328.125 406.369 328.631 406.875 329.25 406.875H340.5C341.119 406.875 341.625 406.369 341.625 405.75C341.625 405.131 341.119 404.625 340.5 404.625ZM340.5 408H329.25C328.013 408 327 409.012 327 410.25V422.625C327 423.862 328.013 424.875 329.25 424.875H340.5C341.738 424.875 342.75 423.862 342.75 422.625V410.25C342.75 409.012 341.738 408 340.5 408ZM337.688 418.125H336.563V419.25C336.563 420.184 335.809 420.938 334.875 420.938C333.941 420.938 333.188 420.184 333.188 419.25V418.125H332.063C331.129 418.125 330.375 417.371 330.375 416.438C330.375 415.504 331.129 414.75 332.063 414.75H333.188V413.625C333.188 412.691 333.941 411.938 334.875 411.938C335.809 411.938 336.563 412.691 336.563 413.625V414.75H337.688C338.621 414.75 339.375 415.504 339.375 416.438C339.375 417.371 338.621 418.125 337.688 418.125Z" fill="#C75B52"/>
<path d="M398.5 256.625H387.25C386.631 256.625 386.125 257.131 386.125 257.75C386.125 258.369 386.631 258.875 387.25 258.875H398.5C399.119 258.875 399.625 258.369 399.625 257.75C399.625 257.131 399.119 256.625 398.5 256.625ZM398.5 260H387.25C386.013 260 385 261.012 385 262.25V274.625C385 275.862 386.013 276.875 387.25 276.875H398.5C399.738 276.875 400.75 275.862 400.75 274.625V262.25C400.75 261.012 399.738 260 398.5 260ZM395.688 270.125H394.563V271.25C394.563 272.184 393.809 272.938 392.875 272.938C391.941 272.938 391.188 272.184 391.188 271.25V270.125H390.063C389.129 270.125 388.375 269.371 388.375 268.438C388.375 267.504 389.129 266.75 390.063 266.75H391.188V265.625C391.188 264.691 391.941 263.938 392.875 263.938C393.809 263.938 394.563 264.691 394.563 265.625V266.75H395.688C396.621 266.75 397.375 267.504 397.375 268.438C397.375 269.371 396.621 270.125 395.688 270.125Z" fill="#7A2D26"/>
</svg>
